<?xml version="1.0" encoding="utf-8"?>
<!-- Generator: Adobe Illustrator 19.1.0, SVG Export Plug-In . SVG Version: 6.00 Build 0)  -->
<svg version="1.1" id="Layer_1" xmlns="http://www.w3.org/2000/svg" xmlns:xlink="http://www.w3.org/1999/xlink" x="0px" y="0px"
	 viewBox="0 0 139 671" style="enable-background:new 0 0 139 671;" xml:space="preserve">
<style type="text/css">
	.st0{fill-rule:evenodd;clip-rule:evenodd;fill:#0D4BA0;}
	.st1{fill-rule:evenodd;clip-rule:evenodd;fill:#ED1C24;}
	.st2{fill-rule:evenodd;clip-rule:evenodd;fill:#00B3F0;}
	.st3{fill-rule:evenodd;clip-rule:evenodd;fill:#CA6C38;}
	.st4{fill-rule:evenodd;clip-rule:evenodd;fill:#0072BC;}
	.st5{fill-rule:evenodd;clip-rule:evenodd;fill:#FFFFFF;}
</style>
<g>
	<path class="st0" d="M70,13.2c15.4,0,29.4,6.2,39.4,16.3c10.1,10.1,16.3,24,16.3,39.4c0,15.4-6.2,29.4-16.3,39.4
		c-10.1,10.1-24,16.3-39.4,16.3s-29.4-6.2-39.4-16.3C20.5,98.3,14.2,84.4,14.2,69c0-15.4,6.2-29.4,16.3-39.4
		C40.7,19.4,54.6,13.2,70,13.2z"/>
	<path class="st1" d="M68,409.9c15.4,0,29.4,6.2,39.4,16.3c10.1,10.1,16.3,24,16.3,39.4c0,15.4-6.2,29.4-16.3,39.4
		c-10.1,10.1-24,16.3-39.4,16.3s-29.4-6.2-39.4-16.3c-10.1-10.1-16.3-24-16.3-39.4c0-15.4,6.2-29.4,16.3-39.4
		C38.7,416.1,52.6,409.9,68,409.9z"/>
	<path class="st2" d="M65.3,543.9c15.4,0,29.4,6.2,39.4,16.3c10.1,10.1,16.3,24,16.3,39.4c0,15.4-6.2,29.4-16.3,39.4
		c-10.1,10.1-24,16.3-39.4,16.3s-29.4-6.2-39.4-16.3c-10.1-10.1-16.3-24-16.3-39.4c0-15.4,6.2-29.4,16.3-39.4
		C36,550.2,49.9,543.9,65.3,543.9z"/>
	<path class="st3" d="M68,275.5c15.4,0,29.4,6.2,39.4,16.3c10.1,10.1,16.3,24,16.3,39.4c0,15.4-6.2,29.4-16.3,39.4
		c-10.1,10.1-24,16.3-39.4,16.3s-29.4-6.2-39.4-16.3c-10.1-10.1-16.3-24-16.3-39.4c0-15.4,6.2-29.4,16.3-39.4
		C38.7,281.7,52.6,275.5,68,275.5z"/>
	<path class="st4" d="M68,146.9c15.4,0,29.4,6.2,39.4,16.3c10.1,10.1,16.3,24,16.3,39.4c0,15.4-6.2,29.4-16.3,39.4
		c-10.1,10.1-24,16.3-39.4,16.3s-29.4-6.2-39.4-16.3c-10.1-10.1-16.3-24-16.3-39.4c0-15.4,6.2-29.4,16.3-39.4
		C38.7,153.2,52.6,146.9,68,146.9z"/>
	<path class="st5" d="M52,57.7h7.1v-6.6C59.1,34.2,70.6,35,70.6,35h13.5v11.4h-8.2c-5.4,0-5.8,3.9-5.8,6.1v5.3h13.2l-2,11.2H70v34.3
		H59.1V69H52V57.7z"/>
	<path class="st5" d="M37.4,573.4c6.6,8.8,16.1,14.7,29.7,16.3c0,0-1.7-18.3,13.3-18.4c5.3,0,9.1,1.8,11.6,4.9
		c2.8-0.7,5.5-1.8,8.2-3.5c-0.7,3.3-2.6,5.8-5.4,7.8c2.4-0.4,4.9-1.2,7.3-2.4c-1.1,3.2-3.4,5.6-6.4,7.3c1.2,9.7-3,22.4-11.4,32
		c-10.9,12.3-30.5,19.9-51.1,6.7c7.5,0.7,14.5-1.2,20.8-6.4c-7.1-0.5-11.4-4.1-13.4-10.3c2.2,0.3,4.3,0.2,6.2-0.5
		c-7.7-2.5-10.8-7.9-11.4-15c1.9,1.2,4,2,6.4,1.9C35.5,587.8,34.3,581,37.4,573.4z"/>
	<g>
		<path class="st5" d="M61,464.9c-5.9,0.6-11.8-1.3-14.4-7.1c-1.6-3.6-1.5-7.7,0.1-11.3c1.9-4.2,5.6-7,10-8.3c2-0.6,4-0.9,6-0.8
			v-0.1h19.4l-5.9,3.2h-4.5c3.1,2.5,4.9,6.2,4.9,10.2c0,6-2.5,8-6.7,11.6c-1.7,1.5-2.9,3-1.7,5.2c0.4,0.8,1.6,1.7,2.3,2.3
			c1.3,1,2.5,2,3.7,3c2.8,2.6,5,5.6,5,9.5c0,1.3-0.2,2.6-0.6,3.9c-1.1,3.4-3.5,6.2-6.5,8.1c-3.6,2.2-7.8,3.2-12,3.2
			c-4.6,0-9.9-0.7-13.8-3.1c-2.6-1.6-4.7-4-5-7.1c-0.4-4.1,2.2-7.8,5.3-10.1c4.6-3.4,10.5-4.5,16.1-4.3
			C60.7,470.7,59.1,468,61,464.9L61,464.9z M65.8,475.5c-4.3-0.4-9.3,0.1-13,2.5c-2.4,1.6-4.2,4.2-4.1,7.2c0.1,2.5,1.5,4.7,3.5,6.1
			c2.8,2.1,6.6,2.8,10.1,2.8c3.2,0,6.6-0.6,9.1-2.7c1.7-1.5,2.8-3.5,2.8-5.8c0-0.2,0-0.4,0-0.6c-0.4-3.2-4.4-6.3-6.7-8.3
			C66.8,476.4,66.3,476,65.8,475.5L65.8,475.5z M65.9,461.5c1.3-0.6,2.3-1.5,3-2.7c1.9-3.1,1.3-7.4,0-10.6c-1.4-3.4-4.3-7.2-8.2-7.8
			c-1.6-0.2-3,0.2-4.4,1C48,446.5,55.4,466.6,65.9,461.5z"/>
		<polygon class="st5" points="92.2,462.9 100.9,462.9 100.9,467.6 92.2,467.6 92.2,476.3 87.5,476.3 87.5,467.6 78.8,467.6 
			78.8,462.9 87.5,462.9 87.5,454.2 92.2,454.2 		"/>
	</g>
	<path class="st5" d="M31,184.5c3,0,6,0,9,0c3.3,0,3.3,0.5,4.3,2.3c3.7,6.4,8.8,15.7,12.7,15.1c0-4.2,0-8.3,0-12.5
		c0-4.9-3.2-2.7-3.4-4.4c-0.1-0.9,1.5-2.4,4.5-2.4c3.5,0,6.9,0,10.4,0c2.7,0,2.9,1.5,2.9,3c0,5.6-0.1,10.8-0.1,16.4
		c5.3-0.5,9.1-8.3,12.4-14.5c1.8-3.4,2.1-3,4.7-3c3.3,0,6.6,0,10,0c2.2,0,2.7,0.9,1.3,3.2c-3.2,5.1-6.6,10.6-10,15.7
		c-1.1,1.7-1.8,1.9,0.2,4.2c3.8,4.5,7.7,8.3,11.5,12.8c0.8,1,0.6,2.5-1.8,2.5c-4.2,0-8.5,0-12.7,0c-1.7,0-2.3,0-4.4-2.2
		c-3.2-3.4-6.2-6.7-10.6-7.2c0,2.5,0,4.7,0,7.1c0,1.3-0.6,2.3-2.6,2.3c-2.8,0-5.6,0-8.4,0c-11.9,0-25.3-23.9-31.2-35.6
		C28.3,185,29.4,184.5,31,184.5z"/>
	<g>
		<path class="st5" d="M47.6,305.1H91c1.6,0,3.1,0.7,4.1,1.7c1.1,1.1,1.7,2.5,1.7,4.1v43.4c0,1.6-0.7,3.1-1.7,4.1
			c-1.1,1.1-2.5,1.7-4.1,1.7H47.6c-1.6,0-3.1-0.7-4.1-1.7c-1.1-1.1-1.7-2.5-1.7-4.1v-43.4c0-1.6,0.7-3.1,1.7-4.1
			C44.5,305.7,45.9,305.1,47.6,305.1L47.6,305.1z M91.2,328.3h-7c0.8,1.9,1.2,4,1.2,6.1c0,4.5-1.8,8.5-4.7,11.4
			c-2.9,2.9-7,4.7-11.4,4.7c-4.5,0-8.5-1.8-11.4-4.7c-2.9-2.9-4.7-7-4.7-11.4c0-2.2,0.4-4.3,1.2-6.1h-7V353c0,0.4,0.2,0.8,0.5,1.1
			c0.3,0.3,0.7,0.5,1.1,0.5h40.7c0.4,0,0.8-0.2,1.1-0.5c0.3-0.3,0.5-0.7,0.5-1.1V328.3L91.2,328.3z M76.8,326.9
			c-1.9-1.9-4.6-3.1-7.5-3.1c-2.9,0-5.6,1.2-7.5,3.1c-1.9,1.9-3.1,4.6-3.1,7.5s1.2,5.6,3.1,7.5c1.9,1.9,4.6,3.1,7.5,3.1
			c2.9,0,5.6-1.2,7.5-3.1c1.9-1.9,3.1-4.6,3.1-7.5S78.7,328.8,76.8,326.9z"/>
		<path class="st3" d="M84,309.8h5.5c1.7,0,3.1,1.4,3.1,3.1v5.6c0,1.7-1.4,3.1-3.1,3.1H84c-1.7,0-3.1-1.4-3.1-3.1v-5.6
			C80.8,311.2,82.2,309.8,84,309.8z"/>
	</g>
</g>
</svg>
